<?plantuml 1.2026.2?><svg xmlns="http://www.w3.org/2000/svg" xmlns:xlink="http://www.w3.org/1999/xlink" contentStyleType="text/css" data-diagram-type="DESCRIPTION" height="612px" preserveAspectRatio="none" style="width:2448px;height:612px;background:#FFFFFF;" version="1.1" viewBox="0 0 2448 612" width="2448px" zoomAndPan="magnify"><title>shAI - Component Architecture (Actual Interfaces from __init__.py)</title><defs/><g><g class="title" data-source-line="1"><text fill="#000000" font-family="sans-serif" font-size="14" font-weight="bold" lengthAdjust="spacing" textLength="382.2266" x="999.9617" y="24.9659">shAI - Component Architecture (Actual Interfaces from</text><text fill="#000000" font-family="sans-serif" font-size="14" font-weight="bold" lengthAdjust="spacing" text-decoration="underline" textLength="23.5479" x="1385.8283" y="24.9659">init</text><text fill="#000000" font-family="sans-serif" font-size="14" font-weight="bold" lengthAdjust="spacing" textLength="25.5219" x="1409.3762" y="24.9659">.py)</text></g><!--cluster shAI Application--><g class="cluster" data-qualified-name="shAI Application" data-source-line="12" id="ent0008"><path d="M850.6098,46.6699 L965.9754,46.6699 A3.75,3.75 0 0 1 968.4754,49.1699 L975.4754,71.7378 L1763.6098,71.7378 A2.5,2.5 0 0 1 1766.1098,74.2378 L1766.1098,147.2399 A2.5,2.5 0 0 1 1763.6098,149.7399 L850.6098,149.7399 A2.5,2.5 0 0 1 848.1098,147.2399 L848.1098,49.1699 A2.5,2.5 0 0 1 850.6098,46.6699" fill="none" style="stroke:#000000;stroke-width:1.5;"/><line style="stroke:#000000;stroke-width:1.5;" x1="848.1098" x2="975.4754" y1="71.7378" y2="71.7378"/><text fill="#000000" font-family="sans-serif" font-size="14" font-weight="bold" lengthAdjust="spacing" textLength="114.3655" x="852.1098" y="63.6358">shAI Application</text></g><!--cluster External Systems--><g class="cluster" data-qualified-name="External Systems" data-source-line="29" id="ent0021"><path d="M137.6098,200.7399 L258.3794,200.7399 A3.75,3.75 0 0 1 260.8794,203.2399 L267.8794,225.8078 L612.6098,225.8078 A2.5,2.5 0 0 1 615.1098,228.3078 L615.1098,453.3699 A2.5,2.5 0 0 1 612.6098,455.8699 L137.6098,455.8699 A2.5,2.5 0 0 1 135.1098,453.3699 L135.1098,203.2399 A2.5,2.5 0 0 1 137.6098,200.7399" fill="none" style="stroke:#000000;stroke-width:1.5;"/><line style="stroke:#000000;stroke-width:1.5;" x1="135.1098" x2="267.8794" y1="225.8078" y2="225.8078"/><text fill="#000000" font-family="sans-serif" font-size="14" font-weight="bold" lengthAdjust="spacing" textLength="119.7695" x="139.1098" y="217.7058">External Systems</text></g><!--cluster Storage--><g class="cluster" data-qualified-name="Storage" data-source-line="38" id="ent0027"><path d="M641.6098,352.8099 L696.9996,352.8099 A3.75,3.75 0 0 1 699.4996,355.3099 L706.4996,377.8778 L808.6098,377.8778 A2.5,2.5 0 0 1 811.1098,380.3778 L811.1098,602.5099 A2.5,2.5 0 0 1 808.6098,605.0099 L641.6098,605.0099 A2.5,2.5 0 0 1 639.1098,602.5099 L639.1098,355.3099 A2.5,2.5 0 0 1 641.6098,352.8099" fill="none" style="stroke:#000000;stroke-width:1.5;"/><line style="stroke:#000000;stroke-width:1.5;" x1="639.1098" x2="706.4996" y1="377.8778" y2="377.8778"/><text fill="#000000" font-family="sans-serif" font-size="14" font-weight="bold" lengthAdjust="spacing" textLength="54.3898" x="643.1098" y="369.7758">Storage</text></g><!--entity CLI--><g class="entity" data-qualified-name="shAI Application.CLI" data-source-line="13" id="ent0009"><rect fill="#F1F1F1" height="49.0679" rx="2.5" ry="2.5" style="stroke:#181818;stroke-width:0.5;" width="97.3858" x="1323.4198" y="84.6699"/><rect fill="#F1F1F1" height="10" style="stroke:#181818;stroke-width:0.5;" width="15" x="1400.8056" y="89.6699"/><rect fill="#F1F1F1" height="2" style="stroke:#181818;stroke-width:0.5;" width="4" x="1398.8056" y="91.6699"/><rect fill="#F1F1F1" height="2" style="stroke:#181818;stroke-width:0.5;" width="4" x="1398.8056" y="95.6699"/><text fill="#000000" font-family="sans-serif" font-size="14" lengthAdjust="spacing" textLength="57.3858" x="1338.4198" y="119.6358">Main CLI</text></g><!--entity LLM--><g class="entity" data-qualified-name="shAI Application.LLM" data-source-line="14" id="ent0010"><rect fill="#F1F1F1" height="49.0679" rx="2.5" ry="2.5" style="stroke:#181818;stroke-width:0.5;" width="120.9477" x="863.6398" y="84.6699"/><rect fill="#F1F1F1" height="10" style="stroke:#181818;stroke-width:0.5;" width="15" x="964.5875" y="89.6699"/><rect fill="#F1F1F1" height="2" style="stroke:#181818;stroke-width:0.5;" width="4" x="962.5875" y="91.6699"/><rect fill="#F1F1F1" height="2" style="stroke:#181818;stroke-width:0.5;" width="4" x="962.5875" y="95.6699"/><text fill="#000000" font-family="sans-serif" font-size="14" lengthAdjust="spacing" textLength="80.9477" x="878.6398" y="119.6358">LLM Module</text></g><!--entity DB--><g class="entity" data-qualified-name="shAI Application.DB" data-source-line="15" id="ent0011"><rect fill="#F1F1F1" height="49.0679" rx="2.5" ry="2.5" style="stroke:#181818;stroke-width:0.5;" width="112.8977" x="1019.6598" y="84.6699"/><rect fill="#F1F1F1" height="10" style="stroke:#181818;stroke-width:0.5;" width="15" x="1112.5576" y="89.6699"/><rect fill="#F1F1F1" height="2" style="stroke:#181818;stroke-width:0.5;" width="4" x="1110.5576" y="91.6699"/><rect fill="#F1F1F1" height="2" style="stroke:#181818;stroke-width:0.5;" width="4" x="1110.5576" y="95.6699"/><text fill="#000000" font-family="sans-serif" font-size="14" lengthAdjust="spacing" textLength="72.8977" x="1034.6598" y="119.6358">DB Module</text></g><!--entity RAG--><g class="entity" data-qualified-name="shAI Application.RAG" data-source-line="16" id="ent0012"><rect fill="#F1F1F1" height="49.0679" rx="2.5" ry="2.5" style="stroke:#181818;stroke-width:0.5;" width="121.4237" x="1167.3998" y="84.6699"/><rect fill="#F1F1F1" height="10" style="stroke:#181818;stroke-width:0.5;" width="15" x="1268.8235" y="89.6699"/><rect fill="#F1F1F1" height="2" style="stroke:#181818;stroke-width:0.5;" width="4" x="1266.8235" y="91.6699"/><rect fill="#F1F1F1" height="2" style="stroke:#181818;stroke-width:0.5;" width="4" x="1266.8235" y="95.6699"/><text fill="#000000" font-family="sans-serif" font-size="14" lengthAdjust="spacing" textLength="81.4237" x="1182.3998" y="119.6358">RAG Module</text></g><!--entity Config--><g class="entity" data-qualified-name="shAI Application.Config" data-source-line="17" id="ent0013"><rect fill="#F1F1F1" height="49.0679" rx="2.5" ry="2.5" style="stroke:#181818;stroke-width:0.5;" width="136.5856" x="1455.8198" y="84.6699"/><rect fill="#F1F1F1" height="10" style="stroke:#181818;stroke-width:0.5;" width="15" x="1572.4055" y="89.6699"/><rect fill="#F1F1F1" height="2" style="stroke:#181818;stroke-width:0.5;" width="4" x="1570.4055" y="91.6699"/><rect fill="#F1F1F1" height="2" style="stroke:#181818;stroke-width:0.5;" width="4" x="1570.4055" y="95.6699"/><text fill="#000000" font-family="sans-serif" font-size="14" lengthAdjust="spacing" textLength="96.5856" x="1470.8198" y="119.6358">Config Module</text></g><!--entity Utils--><g class="entity" data-qualified-name="shAI Application.Utils" data-source-line="18" id="ent0014"><rect fill="#F1F1F1" height="49.0679" rx="2.5" ry="2.5" style="stroke:#181818;stroke-width:0.5;" width="122.7957" x="1627.7098" y="84.6699"/><rect fill="#F1F1F1" height="10" style="stroke:#181818;stroke-width:0.5;" width="15" x="1730.5055" y="89.6699"/><rect fill="#F1F1F1" height="2" style="stroke:#181818;stroke-width:0.5;" width="4" x="1728.5055" y="91.6699"/><rect fill="#F1F1F1" height="2" style="stroke:#181818;stroke-width:0.5;" width="4" x="1728.5055" y="95.6699"/><text fill="#000000" font-family="sans-serif" font-size="14" lengthAdjust="spacing" textLength="82.7957" x="1642.7098" y="119.6358">Utils Module</text></g><!--entity Ollama--><g class="entity" data-qualified-name="External Systems.Ollama" data-source-line="30" id="ent0022"><rect fill="#F1F1F1" height="49.0679" rx="2.5" ry="2.5" style="stroke:#181818;stroke-width:0.5;" width="132.7496" x="305.7398" y="238.7399"/><rect fill="#F1F1F1" height="10" style="stroke:#181818;stroke-width:0.5;" width="15" x="418.4895" y="243.7399"/><rect fill="#F1F1F1" height="2" style="stroke:#181818;stroke-width:0.5;" width="4" x="416.4895" y="245.7399"/><rect fill="#F1F1F1" height="2" style="stroke:#181818;stroke-width:0.5;" width="4" x="416.4895" y="249.7399"/><text fill="#000000" font-family="sans-serif" font-size="14" lengthAdjust="spacing" textLength="92.7496" x="320.7398" y="273.7058">Ollama Server</text></g><!--entity FAISSLib--><g class="entity" data-qualified-name="External Systems.FAISSLib" data-source-line="31" id="ent0023"><rect fill="#F1F1F1" height="49.0679" rx="2.5" ry="2.5" style="stroke:#181818;stroke-width:0.5;" width="126.0857" x="473.0698" y="238.7399"/><rect fill="#F1F1F1" height="10" style="stroke:#181818;stroke-width:0.5;" width="15" x="579.1555" y="243.7399"/><rect fill="#F1F1F1" height="2" style="stroke:#181818;stroke-width:0.5;" width="4" x="577.1555" y="245.7399"/><rect fill="#F1F1F1" height="2" style="stroke:#181818;stroke-width:0.5;" width="4" x="577.1555" y="249.7399"/><text fill="#000000" font-family="sans-serif" font-size="14" lengthAdjust="spacing" textLength="86.0857" x="488.0698" y="273.7058">FAISS Library</text></g><!--entity OpenAISDK--><g class="entity" data-qualified-name="External Systems.OpenAISDK" data-source-line="32" id="ent0024"><rect fill="#F1F1F1" height="49.0679" rx="2.5" ry="2.5" style="stroke:#181818;stroke-width:0.5;" width="119.9957" x="151.1098" y="238.7399"/><rect fill="#F1F1F1" height="10" style="stroke:#181818;stroke-width:0.5;" width="15" x="251.1055" y="243.7399"/><rect fill="#F1F1F1" height="2" style="stroke:#181818;stroke-width:0.5;" width="4" x="249.1055" y="245.7399"/><rect fill="#F1F1F1" height="2" style="stroke:#181818;stroke-width:0.5;" width="4" x="249.1055" y="249.7399"/><text fill="#000000" font-family="sans-serif" font-size="14" lengthAdjust="spacing" textLength="79.9957" x="166.1098" y="273.7058">OpenAI SDK</text></g><!--entity Docker--><g class="entity" data-qualified-name="External Systems.Docker" data-source-line="33" id="ent0025"><rect fill="#F1F1F1" height="49.0679" rx="2.5" ry="2.5" style="stroke:#181818;stroke-width:0.5;" width="86.5638" x="350.8298" y="390.8099"/><rect fill="#F1F1F1" height="10" style="stroke:#181818;stroke-width:0.5;" width="15" x="417.3937" y="395.8099"/><rect fill="#F1F1F1" height="2" style="stroke:#181818;stroke-width:0.5;" width="4" x="415.3937" y="397.8099"/><rect fill="#F1F1F1" height="2" style="stroke:#181818;stroke-width:0.5;" width="4" x="415.3937" y="401.8099"/><text fill="#000000" font-family="sans-serif" font-size="14" lengthAdjust="spacing" textLength="46.5638" x="365.8298" y="425.7758">Docker</text></g><!--entity Models--><g class="entity" data-qualified-name="External Systems.Models" data-source-line="34" id="ent0026"><rect fill="#F1F1F1" height="49.0679" rx="2.5" ry="2.5" style="stroke:#181818;stroke-width:0.5;" width="119.0017" x="188.6098" y="390.8099"/><rect fill="#F1F1F1" height="10" style="stroke:#181818;stroke-width:0.5;" width="15" x="287.6115" y="395.8099"/><rect fill="#F1F1F1" height="2" style="stroke:#181818;stroke-width:0.5;" width="4" x="285.6115" y="397.8099"/><rect fill="#F1F1F1" height="2" style="stroke:#181818;stroke-width:0.5;" width="4" x="285.6115" y="401.8099"/><text fill="#000000" font-family="sans-serif" font-size="14" lengthAdjust="spacing" textLength="79.0017" x="203.6098" y="425.7758">LLM Models</text></g><!--entity FS--><g class="entity" data-qualified-name="Storage.FS" data-source-line="39" id="ent0028"><rect fill="#F1F1F1" height="68.1358" rx="2.5" ry="2.5" style="stroke:#181818;stroke-width:0.5;" width="140.7016" x="654.7598" y="520.8699"/><rect fill="#F1F1F1" height="10" style="stroke:#181818;stroke-width:0.5;" width="15" x="775.4615" y="525.8699"/><rect fill="#F1F1F1" height="2" style="stroke:#181818;stroke-width:0.5;" width="4" x="773.4615" y="527.8699"/><rect fill="#F1F1F1" height="2" style="stroke:#181818;stroke-width:0.5;" width="4" x="773.4615" y="531.8699"/><text fill="#000000" font-family="sans-serif" font-size="14" lengthAdjust="spacing" textLength="73.5977" x="669.7598" y="555.8358">File System</text><text fill="#000000" font-family="sans-serif" font-size="14" lengthAdjust="spacing" textLength="100.7016" x="669.7598" y="574.9038">(Index Storage)</text></g><!--entity VectorIdx--><g class="entity" data-qualified-name="Storage.VectorIdx" data-source-line="40" id="ent0029"><rect fill="#F1F1F1" height="49.0679" rx="2.5" ry="2.5" style="stroke:#181818;stroke-width:0.5;" width="123.2717" x="655.4698" y="390.8099"/><rect fill="#F1F1F1" height="10" style="stroke:#181818;stroke-width:0.5;" width="15" x="758.7415" y="395.8099"/><rect fill="#F1F1F1" height="2" style="stroke:#181818;stroke-width:0.5;" width="4" x="756.7415" y="397.8099"/><rect fill="#F1F1F1" height="2" style="stroke:#181818;stroke-width:0.5;" width="4" x="756.7415" y="401.8099"/><text fill="#000000" font-family="sans-serif" font-size="14" lengthAdjust="spacing" textLength="83.2717" x="670.4698" y="425.7758">Vector Index</text></g><!--entity IGeneration--><g class="entity" data-qualified-name="IGeneration" data-source-line="4" id="ent0002"><ellipse cx="107.1098" cy="263.2699" fill="#F1F1F1" rx="8" ry="8" style="stroke:#181818;stroke-width:0.5;"/><text fill="#000000" font-family="sans-serif" font-size="14" lengthAdjust="spacing" textLength="106.1756" x="54.0221" y="295.2358">ILLMGeneration</text></g><!--entity IEmbedding--><g class="entity" data-qualified-name="IEmbedding" data-source-line="5" id="ent0003"><ellipse cx="46.1098" cy="263.2699" fill="#F1F1F1" rx="8" ry="8" style="stroke:#181818;stroke-width:0.5;"/><text fill="#000000" font-family="sans-serif" font-size="14" lengthAdjust="spacing" textLength="80.2197" x="6" y="295.2358">IEmbedding</text></g><!--entity IDatabase--><g class="entity" data-qualified-name="IDatabase" data-source-line="6" id="ent0004"><ellipse cx="1070.1098" cy="263.2699" fill="#F1F1F1" rx="8" ry="8" style="stroke:#181818;stroke-width:0.5;"/><text fill="#000000" font-family="sans-serif" font-size="14" lengthAdjust="spacing" textLength="66.7938" x="1036.713" y="295.2358">IDatabase</text></g><!--entity IRAG--><g class="entity" data-qualified-name="IRAG" data-source-line="7" id="ent0005"><ellipse cx="1493.1098" cy="263.2699" fill="#F1F1F1" rx="8" ry="8" style="stroke:#181818;stroke-width:0.5;"/><text fill="#000000" font-family="sans-serif" font-size="14" lengthAdjust="spacing" textLength="84.9517" x="1450.634" y="295.2358">IRAGPipeline</text></g><!--entity IConfig--><g class="entity" data-qualified-name="IConfig" data-source-line="8" id="ent0006"><ellipse cx="1881.1098" cy="263.2699" fill="#F1F1F1" rx="8" ry="8" style="stroke:#181818;stroke-width:0.5;"/><text fill="#000000" font-family="sans-serif" font-size="14" lengthAdjust="spacing" textLength="95.8296" x="1833.195" y="295.2358">IConfiguration</text></g><!--entity IUtils--><g class="entity" data-qualified-name="IUtils" data-source-line="9" id="ent0007"><ellipse cx="2205.1098" cy="263.2699" fill="#F1F1F1" rx="8" ry="8" style="stroke:#181818;stroke-width:0.5;"/><text fill="#000000" font-family="sans-serif" font-size="14" lengthAdjust="spacing" textLength="33.9639" x="2188.1279" y="295.2358">IUtils</text></g><!--link LLM to IGeneration--><g class="link" data-entity-1="ent0010" data-entity-2="ent0002" data-link-type="association" data-source-line="20" id="lnk15"><path d="M863.2298,111.3699 C709.6798,114.8499 309.8398,127.4199 183.1098,165.7399 C159.6798,172.8199 151.2598,174.3499 135.1098,192.7399 C118.9698,211.1199 111.4298,239.9999 108.5698,254.0499" fill="none" id="LLM-IGeneration" style="stroke:#181818;stroke-width:1;"/><text fill="#000000" font-family="sans-serif" font-size="13" lengthAdjust="spacing" textLength="52.741" x="184.1098" y="180.6369">provides</text></g><!--link LLM to IEmbedding--><g class="link" data-entity-1="ent0010" data-entity-2="ent0003" data-link-type="association" data-source-line="21" id="lnk16"><path d="M863.1498,110.4299 C679.9598,111.6099 143.2198,119.0699 81.1098,165.7399 C52.4598,187.2599 47.2198,234.4999 46.2998,253.7999" fill="none" id="LLM-IEmbedding" style="stroke:#181818;stroke-width:1;"/><text fill="#000000" font-family="sans-serif" font-size="13" lengthAdjust="spacing" textLength="52.741" x="82.1098" y="180.6369">provides</text></g><!--link DB to IDatabase--><g class="link" data-entity-1="ent0011" data-entity-2="ent0004" data-link-type="association" data-source-line="22" id="lnk17"><path d="M1047.0198,134.1399 C1034.0898,143.3399 1018.1698,152.8099 1002.1098,157.7399 C985.2698,162.9099 697.4098,153.1299 685.1098,165.7399 C656.0998,195.4899 701.8098,180.4399 778.1098,192.7399 C890.7798,210.8999 1024.3698,248.8699 1060.6398,259.4699" fill="none" id="DB-IDatabase" style="stroke:#181818;stroke-width:1;"/><text fill="#000000" font-family="sans-serif" font-size="13" lengthAdjust="spacing" textLength="52.741" x="686.1098" y="180.6369">provides</text></g><!--link RAG to IRAG--><g class="link" data-entity-1="ent0012" data-entity-2="ent0005" data-link-type="association" data-source-line="23" id="lnk18"><path d="M1219.9398,134.0099 C1216.0798,149.9099 1214.3698,170.4499 1225.1098,184.7399 C1257.8498,228.2899 1440.0598,255.1799 1483.7098,261.0499" fill="none" id="RAG-IRAG" style="stroke:#181818;stroke-width:1;"/><text fill="#000000" font-family="sans-serif" font-size="13" lengthAdjust="spacing" textLength="52.741" x="1226.1098" y="180.6369">provides</text></g><!--link Config to IConfig--><g class="link" data-entity-1="ent0013" data-entity-2="ent0006" data-link-type="association" data-source-line="24" id="lnk19"><path d="M1558.0098,133.9899 C1573.2098,143.2899 1591.8098,152.8699 1610.1098,157.7399 C1624.2298,161.4999 2125.8598,155.3299 2136.1098,165.7399 C2212.6698,243.4799 1944.6298,259.4899 1890.4798,261.8999" fill="none" id="Config-IConfig" style="stroke:#181818;stroke-width:1;"/><text fill="#000000" font-family="sans-serif" font-size="13" lengthAdjust="spacing" textLength="52.741" x="2147.9898" y="180.6369">provides</text></g><!--link Utils to IUtils--><g class="link" data-entity-1="ent0014" data-entity-2="ent0007" data-link-type="association" data-source-line="25" id="lnk20"><path d="M1750.8298,110.6199 C1909.8298,112.3199 2323.9498,121.0499 2365.1098,165.7399 C2414.2398,219.0699 2255.6298,252.8599 2214.5698,260.5799" fill="none" id="Utils-IUtils" style="stroke:#181818;stroke-width:1;"/><text fill="#000000" font-family="sans-serif" font-size="13" lengthAdjust="spacing" textLength="52.741" x="2375.2998" y="180.6369">provides</text></g><!--link CLI to IGeneration--><g class="link" data-entity-1="ent0009" data-entity-2="ent0002" data-link-type="dependency" data-source-line="44" id="lnk30"><path d="M1396.4298,134.1899 C1409.7598,150.1799 1421.0198,170.7399 1407.1098,184.7399 C1394.6598,197.2699 149.7198,182.7999 135.1098,192.7399 C114.4498,206.7899 109.5894,232.906 108.1694,248.066" fill="none" id="CLI-to-IGeneration" style="stroke:#181818;stroke-width:1;"/><polygon fill="#181818" points="107.6098,254.0399,112.4317,245.4522,108.0761,249.0617,104.4666,244.7061,107.6098,254.0399" style="stroke:#181818;stroke-width:1;"/><text fill="#000000" font-family="sans-serif" font-size="13" lengthAdjust="spacing" textLength="115.1541" x="1414.4798" y="180.6369">answer generation</text></g><!--link CLI to IDatabase--><g class="link" data-entity-1="ent0009" data-entity-2="ent0004" data-link-type="dependency" data-source-line="45" id="lnk31"><path d="M1398.0698,134.0899 C1409.4998,143.1599 1423.6198,152.5499 1438.1098,157.7399 C1492.0298,177.0399 1602.9098,142.6099 1564.1098,184.7399 C1556.7798,192.6899 1477.8398,191.3599 1467.1098,192.7399 C1311.2998,212.7699 1129.3337,249.9161 1085.4637,259.0561" fill="none" id="CLI-to-IDatabase" style="stroke:#181818;stroke-width:1;"/><polygon fill="#181818" points="1079.5898,260.2799,1089.2165,262.3601,1084.4847,259.2601,1087.5848,254.5283,1079.5898,260.2799" style="stroke:#181818;stroke-width:1;"/><text fill="#000000" font-family="sans-serif" font-size="13" lengthAdjust="spacing" textLength="112.4501" x="1573.1698" y="180.6369">search documents</text></g><!--link CLI to IRAG--><g class="link" data-entity-1="ent0009" data-entity-2="ent0005" data-link-type="dependency" data-source-line="46" id="lnk32"><path d="M1397.6698,134.0899 C1409.1398,143.2799 1423.3998,152.7599 1438.1098,157.7399 C1452.8498,162.7299 1707.2598,154.5799 1718.1098,165.7399 C1785.9498,235.5399 1558.3617,257.2436 1508.3317,261.1436" fill="none" id="CLI-to-IRAG" style="stroke:#181818;stroke-width:1;"/><polygon fill="#181818" points="1502.3498,261.6099,1511.6335,264.8983,1507.3347,261.2213,1511.0118,256.9225,1502.3498,261.6099" style="stroke:#181818;stroke-width:1;"/><text fill="#000000" font-family="sans-serif" font-size="13" lengthAdjust="spacing" textLength="82.9791" x="1730.4298" y="180.6369">rag_pipeline()</text></g><!--link CLI to IConfig--><g class="link" data-entity-1="ent0009" data-entity-2="ent0006" data-link-type="dependency" data-source-line="47" id="lnk33"><path d="M1397.6498,134.1499 C1409.1198,143.3499 1423.3798,152.8199 1438.1098,157.7399 C1458.2998,164.4799 1802.6198,155.1999 1821.1098,165.7399 C1855.7498,185.4699 1871.3902,228.4127 1877.1602,248.0727" fill="none" id="CLI-to-IConfig" style="stroke:#181818;stroke-width:1;"/><polygon fill="#181818" points="1878.8498,253.8299,1880.1535,244.0677,1877.4418,249.0323,1872.4772,246.3206,1878.8498,253.8299" style="stroke:#181818;stroke-width:1;"/><text fill="#000000" font-family="sans-serif" font-size="13" lengthAdjust="spacing" textLength="84.6041" x="1843.1798" y="180.6369">system config</text></g><!--link CLI to IUtils--><g class="link" data-entity-1="ent0009" data-entity-2="ent0007" data-link-type="dependency" data-source-line="48" id="lnk34"><path d="M1397.6398,134.1799 C1409.1098,143.3899 1423.3698,152.8499 1438.1098,157.7399 C1490.6398,175.1499 1881.6698,155.8099 1936.1098,165.7399 C1963.6298,170.7499 2145.7814,239.7078 2190.1314,256.5678" fill="none" id="CLI-to-IUtils" style="stroke:#181818;stroke-width:1;"/><polygon fill="#181818" points="2195.7398,258.6999,2188.7486,251.7628,2191.0662,256.9232,2185.9059,259.2407,2195.7398,258.6999" style="stroke:#181818;stroke-width:1;"/><text fill="#000000" font-family="sans-serif" font-size="13" lengthAdjust="spacing" textLength="126.7891" x="1995.5498" y="180.6369">container &amp; prompts</text></g><!--link RAG to IGeneration--><g class="link" data-entity-1="ent0012" data-entity-2="ent0002" data-link-type="dependency" data-source-line="51" id="lnk35"><path d="M1197.2298,134.0199 C1183.5598,143.1999 1166.8098,152.6899 1150.1098,157.7399 C1107.7498,170.5499 994.6698,157.8899 951.1098,165.7399 C924.4098,170.5499 919.8698,180.3199 893.1098,184.7399 C872.3298,188.1699 152.4998,180.8599 135.1098,192.7399 C114.4798,206.8299 109.5998,232.9261 108.1798,248.0761" fill="none" id="RAG-to-IGeneration" style="stroke:#181818;stroke-width:1;"/><polygon fill="#181818" points="107.6198,254.0499,112.4423,245.4625,108.0864,249.0717,104.4772,244.7159,107.6198,254.0499" style="stroke:#181818;stroke-width:1;"/><text fill="#000000" font-family="sans-serif" font-size="13" lengthAdjust="spacing" textLength="96.0961" x="952.1098" y="180.6369">LLM generation</text></g><!--link RAG to IDatabase--><g class="link" data-entity-1="ent0012" data-entity-2="ent0004" data-link-type="dependency" data-source-line="52" id="lnk36"><path d="M1196.3398,134.0699 C1182.7798,143.0199 1166.3598,152.3199 1150.1098,157.7399 C1132.5298,163.5999 1079.5698,152.0199 1067.1098,165.7399 C1044.5598,190.5599 1056.8416,229.953 1064.2716,248.433" fill="none" id="RAG-to-IDatabase" style="stroke:#181818;stroke-width:1;"/><polygon fill="#181818" points="1066.5098,253.9999,1066.8638,244.1574,1064.6447,249.3608,1059.4413,247.1417,1066.5098,253.9999" style="stroke:#181818;stroke-width:1;"/><text fill="#000000" font-family="sans-serif" font-size="13" lengthAdjust="spacing" textLength="116.4281" x="1068.1098" y="180.6369">document retrieval</text></g><!--link RAG to IEmbedding--><g class="link" data-entity-1="ent0012" data-entity-2="ent0003" data-link-type="dependency" data-source-line="53" id="lnk37"><path d="M1197.2798,134.1799 C1183.6098,143.3799 1166.8498,152.8499 1150.1098,157.7399 C1070.0998,181.1199 855.2498,142.8199 775.1098,165.7399 C759.2098,170.2899 759.0298,180.2599 743.1098,184.7399 C725.3798,189.7199 95.6798,182.8899 80.1098,192.7399 C58.3098,206.5299 51.1453,232.8453 48.3953,248.0853" fill="none" id="RAG-to-IEmbedding" style="stroke:#181818;stroke-width:1;"/><polygon fill="#181818" points="47.3298,253.9899,52.8645,245.8433,48.2177,249.0694,44.9916,244.4226,47.3298,253.9899" style="stroke:#181818;stroke-width:1;"/><text fill="#000000" font-family="sans-serif" font-size="13" lengthAdjust="spacing" textLength="108.9271" x="776.1098" y="180.6369">query embedding</text></g><!--link RAG to IConfig--><g class="link" data-entity-1="ent0012" data-entity-2="ent0006" data-link-type="dependency" data-source-line="54" id="lnk38"><path d="M1248.9898,134.1599 C1265.9098,151.7099 1291.4298,174.2199 1319.1098,184.7399 C1339.9998,192.6799 1497.9098,190.1699 1520.1098,192.7399 C1661.4998,209.0699 1824.6658,248.2673 1865.8858,258.4773" fill="none" id="RAG-to-IConfig" style="stroke:#181818;stroke-width:1;"/><polygon fill="#181818" points="1871.7098,259.9199,1863.9356,253.8734,1866.8565,258.7178,1862.0121,261.6387,1871.7098,259.9199" style="stroke:#181818;stroke-width:1;"/><text fill="#000000" font-family="sans-serif" font-size="13" lengthAdjust="spacing" textLength="82.6021" x="1320.1098" y="180.6369">configuration</text></g><!--link DB to FAISSLib--><g class="link" data-entity-1="ent0011" data-entity-2="ent0023" data-link-type="dependency" data-source-line="57" id="lnk39"><path d="M1047.0498,134.2099 C1034.1098,143.4199 1018.1898,152.8799 1002.1098,157.7399 C988.6298,161.8099 504.9898,155.6999 495.1098,165.7399 C475.3098,185.8499 490.6332,212.4289 508.8632,233.8689" fill="none" id="DB-to-FAISSLib" style="stroke:#181818;stroke-width:1;"/><polygon fill="#181818" points="512.7498,238.4399,509.9672,228.9923,509.511,234.6307,503.8726,234.1745,512.7498,238.4399" style="stroke:#181818;stroke-width:1;"/><text fill="#000000" font-family="sans-serif" font-size="13" lengthAdjust="spacing" textLength="107.5101" x="496.1098" y="180.6369">vector operations</text></g><!--link DB to VectorIdx--><g class="link" data-entity-1="ent0011" data-entity-2="ent0029" data-link-type="dependency" data-source-line="58" id="lnk40"><path d="M1047.0298,134.1499 C1034.0898,143.3499 1018.1698,152.8199 1002.1098,157.7399 C984.3598,163.1799 681.0798,152.4599 668.1098,165.7399 C607.7198,227.5899 665.6676,335.9114 697.3676,385.2714" fill="none" id="DB-to-VectorIdx" style="stroke:#181818;stroke-width:1;"/><polygon fill="#181818" points="700.6098,390.3199,699.1121,380.5856,697.908,386.1128,692.3808,384.9086,700.6098,390.3199" style="stroke:#181818;stroke-width:1;"/><text fill="#000000" font-family="sans-serif" font-size="13" lengthAdjust="spacing" textLength="99.8011" x="651.2998" y="268.6669">store/load index</text></g><!--link VectorIdx to FS--><g class="link" data-entity-1="ent0029" data-entity-2="ent0028" data-link-type="dependency" data-source-line="59" id="lnk41"><path d="M718.4998,440.3099 C719.7898,462.4799 721.3719,489.68 722.8119,514.47" fill="none" id="VectorIdx-to-FS" style="stroke:#181818;stroke-width:1;"/><polygon fill="#181818" points="723.1598,520.4599,726.6312,511.2431,722.8699,515.4683,718.6447,511.707,723.1598,520.4599" style="stroke:#181818;stroke-width:1;"/><text fill="#000000" font-family="sans-serif" font-size="13" lengthAdjust="spacing" textLength="85.0331" x="722.3498" y="486.7669">persist to disk</text></g><!--link LLM to OpenAISDK--><g class="link" data-entity-1="ent0010" data-entity-2="ent0024" data-link-type="dependency" data-source-line="62" id="lnk42"><path d="M863.2598,112.0699 C709.4298,117.2299 313.6698,133.5299 264.1098,165.7399 C238.6198,182.2999 226.1475,209.8055 218.9875,232.6055" fill="none" id="LLM-to-OpenAISDK" style="stroke:#181818;stroke-width:1;"/><polygon fill="#181818" points="217.1898,238.3299,223.7026,230.9418,218.6879,233.5596,216.0701,228.5449,217.1898,238.3299" style="stroke:#181818;stroke-width:1;"/><text fill="#000000" font-family="sans-serif" font-size="13" lengthAdjust="spacing" textLength="53.6381" x="265.1098" y="180.6369">REST API</text></g><!--link LLM to Ollama--><g class="link" data-entity-1="ent0010" data-entity-2="ent0022" data-link-type="dependency" data-source-line="63" id="lnk43"><path d="M863.3398,111.3999 C719.9998,114.8599 370.1998,127.1899 335.1098,165.7399 C316.5098,186.1799 329.9739,212.2334 346.6139,233.5134" fill="none" id="LLM-to-Ollama" style="stroke:#181818;stroke-width:1;"/><polygon fill="#181818" points="350.3098,238.2399,347.917,228.6861,347.2299,234.3011,341.6149,233.6141,350.3098,238.2399" style="stroke:#181818;stroke-width:1;"/><text fill="#000000" font-family="sans-serif" font-size="13" lengthAdjust="spacing" textLength="142.3241" x="336.1098" y="180.6369">embedding/generation</text></g><!--link Utils to Ollama--><g class="link" data-entity-1="ent0014" data-entity-2="ent0022" data-link-type="dependency" data-source-line="66" id="lnk44"><path d="M1750.9298,110.0099 C1902.3898,110.5599 2275.0198,118.5299 2209.1098,184.7399 C2191.9198,201.9999 477.9898,184.3599 455.1098,192.7399 C430.2198,201.8499 411.6831,217.6517 396.3531,233.9317" fill="none" id="Utils-to-Ollama" style="stroke:#181818;stroke-width:1;"/><polygon fill="#181818" points="392.2398,238.2999,401.3219,234.4898,395.6676,234.6598,395.4976,229.0055,392.2398,238.2999" style="stroke:#181818;stroke-width:1;"/><text fill="#000000" font-family="sans-serif" font-size="13" lengthAdjust="spacing" textLength="93.4311" x="2217.8198" y="180.6369">docker lifecycle</text></g><!--link Utils to FS--><g class="link" data-entity-1="ent0014" data-entity-2="ent0028" data-link-type="dependency" data-source-line="67" id="lnk45"><path d="M1750.7298,110.0999 C1921.2398,110.4399 2389.8798,115.9399 2436.1098,165.7399 C2441.8598,171.9299 2440.5298,177.5499 2436.1098,184.7399 C2258.8798,472.8499 1101.9448,538.8229 801.7248,551.1929" fill="none" id="Utils-to-FS" style="stroke:#181818;stroke-width:1;"/><polygon fill="#181818" points="795.7298,551.4399,804.8869,555.066,800.7256,551.2341,804.5575,547.0728,795.7298,551.4399" style="stroke:#181818;stroke-width:1;"/><text fill="#000000" font-family="sans-serif" font-size="13" lengthAdjust="spacing" textLength="87.9191" x="2248.1598" y="332.7069">file operations</text></g><!--link Ollama to Docker--><g class="link" data-entity-1="ent0022" data-entity-2="ent0025" data-link-type="dependency" data-source-line="70" id="lnk46"><path d="M375.5998,288.0499 C379.7198,316.1499 385.66,356.6833 389.77,384.7333" fill="none" id="Ollama-to-Docker" style="stroke:#181818;stroke-width:1;"/><polygon fill="#181818" points="390.6398,390.6699,393.2928,381.1851,389.915,385.7227,385.3773,382.3449,390.6398,390.6699" style="stroke:#181818;stroke-width:1;"/><text fill="#000000" font-family="sans-serif" font-size="13" lengthAdjust="spacing" textLength="104.0261" x="383.4498" y="332.7069">runs in container</text></g><!--link Ollama to Models--><g class="link" data-entity-1="ent0022" data-entity-2="ent0026" data-link-type="dependency" data-source-line="71" id="lnk47"><path d="M305.2798,286.3899 C290.4298,294.1899 276.1298,304.4499 266.1098,317.8099 C250.3498,338.8099 247.0796,363.47 246.9396,384.58" fill="none" id="Ollama-to-Models" style="stroke:#181818;stroke-width:1;"/><polygon fill="#181818" points="246.8998,390.5799,250.9594,381.6066,246.933,385.58,242.9596,381.5536,246.8998,390.5799" style="stroke:#181818;stroke-width:1;"/><text fill="#000000" font-family="sans-serif" font-size="13" lengthAdjust="spacing" textLength="104.9231" x="267.1098" y="332.7069">uses LLM models</text></g><!--link FAISSLib to VectorIdx--><g class="link" data-entity-1="ent0023" data-entity-2="ent0029" data-link-type="dependency" data-source-line="72" id="lnk48"><path d="M546.6798,288.1999 C554.9298,304.2199 567.8998,324.5599 585.1098,336.8099 C596.3498,344.8099 602.5598,339.0599 615.1098,344.8099 C641.4198,356.8499 663.5734,371.8857 683.1534,386.8557" fill="none" id="FAISSLib-to-VectorIdx" style="stroke:#181818;stroke-width:1;"/><polygon fill="#181818" points="687.9198,390.4999,683.1996,381.8559,683.9478,387.463,678.3406,388.2112,687.9198,390.4999" style="stroke:#181818;stroke-width:1;"/><text fill="#000000" font-family="sans-serif" font-size="13" lengthAdjust="spacing" textLength="56.329" x="586.1098" y="332.7069">manages</text></g><?plantuml-src RLLDJzmm4BtdLumuj718kNEe55X0KHSLaRQNjbgPU7QnIEpKThQxglhVExOJnrug8MqyxyrutdmOAso7O5wg6aguKVsW94eBbMvVXCNMZXhXlA9Vra4jBUejQz70LgiUDXiXXTriFWp7Yw9u3olS2eaW5jepCyX1IM0XGg_uIDVXOL3QcY8ouQnUhn_kKQ9cLYXv1in0lPmpvct_Z9mBkGkiUCn8AsQPkprmvbD6UQhk7yM07UKSM6J823TARiLkJ5CAfeprrOhE1DH_kafKmz29rlijHJN5mDfNjYCdN--4T0P_2e0sbl_x0nFakQv_khZqcwDKAtZmfVGu7NDyTPt2g-iS9Pafx5HdUD2OKYRL6SjhJKb1F03zkVpAj7zm1ODMUy7HB71iN8vIykNIiHnpgPU-KRbzIhcS6vIZ8TLowa-A_NNDkZrGCoLDPtCq5lkaJQV8cpPzxZhMCsXGxr7xAWHBphghwgQ1jNZMJ1yzorl8S19jG4bpqQm-XL3-IAUJvghsTReiVFvtDh0pdX8-Wz36Aasw5dsJuOsiEq5B6ZJ_aEUrv7YOdIz2_WqvyBb5tx_HGw4qUAB7Ww7cXt0n3N1u5UWPe6amXJEKvSUJ4M7I_4ODksNj8oyP1uEC7YVWgXrxlrMH5CQ2ijmCqrwVNoned0pZXP5UFzGHduU3x9QsZn9vvmQb7wnVQHSyq-1dyOq6L_v4G2Gb0kRCGQFL0lUiMsZfJlmQKHy1u_CMIL59cpvG_WM-pdDqkqGUyxYHopwqIWrJXf4JM-OgH5zusId6AHprj5X07wvnEuJQ26F1Ak32lBhRdVRiUh_ev10dcVoURfilK3tM2nXsw6fHUfaKaCA6ncI1furElRdV1UZ45jjZss72yVbktKmdijF5vqW9SfIje3TXYkWSmtwvcHgbos2PZPGLLenOeq7_6Bj_SsxfOjbFwzipIQjaYdy0?></g></svg>