<?plantuml 1.2026.2?><svg xmlns="http://www.w3.org/2000/svg" xmlns:xlink="http://www.w3.org/1999/xlink" contentStyleType="text/css" data-diagram-type="DESCRIPTION" height="502px" preserveAspectRatio="none" style="width:681px;height:502px;background:#FFFFFF;" version="1.1" viewBox="0 0 681 502" width="681px" zoomAndPan="magnify"><title>shAI - System Use Cases</title><defs/><g><g class="title" data-source-line="1"><text fill="#000000" font-family="sans-serif" font-size="14" font-weight="bold" lengthAdjust="spacing" textLength="166.8793" x="250.1332" y="24.9659">shAI - System Use Cases</text></g><!--cluster shAI System--><g class="cluster" data-qualified-name="shAI System" data-source-line="9" id="ent0005"><rect fill="none" height="449" rx="2.5" ry="2.5" style="stroke:#181818;stroke-width:1;" width="207.57" x="256.22" y="47.0679"/><text fill="#000000" font-family="sans-serif" font-size="14" font-weight="bold" lengthAdjust="spacing" textLength="85.7217" x="317.1442" y="64.0339">shAI System</text></g><!--entity UC1--><g class="entity" data-qualified-name="shAI System.UC1" data-source-line="10" id="ent0006"><ellipse cx="360.0069" cy="104.0633" fill="#F1F1F1" rx="82.3769" ry="18.8754" style="stroke:#181818;stroke-width:0.5;"/><text fill="#000000" font-family="sans-serif" font-size="14" lengthAdjust="spacing" textLength="126.9375" x="296.5381" y="110.0973">Execute RAG Query</text></g><!--entity UC2--><g class="entity" data-qualified-name="shAI System.UC2" data-source-line="11" id="ent0007"><ellipse cx="360.0085" cy="176.0656" fill="#F1F1F1" rx="78.2885" ry="18.0577" style="stroke:#181818;stroke-width:0.5;"/><text fill="#000000" font-family="sans-serif" font-size="14" lengthAdjust="spacing" textLength="116.5495" x="301.7337" y="182.0996">Configure System</text></g><!--entity UC3--><g class="entity" data-qualified-name="shAI System.UC3" data-source-line="12" id="ent0008"><ellipse cx="360.0125" cy="320.0644" fill="#F1F1F1" rx="87.7825" ry="19.9565" style="stroke:#181818;stroke-width:0.5;"/><text fill="#000000" font-family="sans-serif" font-size="14" lengthAdjust="spacing" textLength="140.2235" x="289.9007" y="326.0984">Build Database Index</text></g><!--entity UC4--><g class="entity" data-qualified-name="shAI System.UC4" data-source-line="13" id="ent0009"><ellipse cx="360.0082" cy="247.0656" fill="#F1F1F1" rx="75.8882" ry="17.5776" style="stroke:#181818;stroke-width:0.5;"/><text fill="#000000" font-family="sans-serif" font-size="14" lengthAdjust="spacing" textLength="110.2776" x="304.8694" y="253.0995">Search Database</text></g><!--entity UC5--><g class="entity" data-qualified-name="shAI System.UC5" data-source-line="14" id="ent0010"><ellipse cx="360.0077" cy="393.0675" fill="#F1F1F1" rx="77.2477" ry="17.8495" style="stroke:#181818;stroke-width:0.5;"/><text fill="#000000" font-family="sans-serif" font-size="14" lengthAdjust="spacing" textLength="113.8475" x="303.084" y="399.1014">Generate Answer</text></g><!--entity UC6--><g class="entity" data-qualified-name="shAI System.UC6" data-source-line="15" id="ent0011"><ellipse cx="360.0125" cy="463.0684" fill="#F1F1F1" rx="73.6025" ry="17.1205" style="stroke:#181818;stroke-width:0.5;"/><text fill="#000000" font-family="sans-serif" font-size="14" lengthAdjust="spacing" textLength="104.1596" x="307.9327" y="469.1024">Manage Ollama</text></g><!--entity User--><g class="entity" data-qualified-name="User" data-source-line="5" id="ent0002"><ellipse cx="51.6089" cy="145.0379" fill="#F1F1F1" rx="8" ry="8" style="stroke:#181818;stroke-width:0.5;"/><path d="M51.6089,153.0379 L51.6089,180.0379 M38.6089,161.0379 L64.6089,161.0379 M51.6089,180.0379 L38.6089,195.0379 M51.6089,180.0379 L64.6089,195.0379" fill="none" style="stroke:#181818;stroke-width:0.5;"/><text fill="#000000" font-family="sans-serif" font-size="14" lengthAdjust="spacing" textLength="30.6179" x="36.3" y="211.5039">User</text></g><!--entity Admin--><g class="entity" data-qualified-name="Admin" data-source-line="6" id="ent0003"><ellipse cx="51.6118" cy="361.4979" fill="#F1F1F1" rx="8" ry="8" style="stroke:#181818;stroke-width:0.5;"/><path d="M51.6118,369.4979 L51.6118,396.4979 M38.6118,377.4979 L64.6118,377.4979 M51.6118,396.4979 L38.6118,411.4979 M51.6118,396.4979 L64.6118,411.4979" fill="none" style="stroke:#181818;stroke-width:0.5;"/><text fill="#000000" font-family="sans-serif" font-size="14" lengthAdjust="spacing" textLength="47.5718" x="6" y="427.9639">System</text><text fill="#000000" font-family="sans-serif" font-size="14" lengthAdjust="spacing" textLength="91.2237" x="6" y="447.0318">Administrator</text></g><!--entity LLM_Actor--><g class="entity" data-qualified-name="LLM_Actor" data-source-line="7" id="ent0004"><ellipse cx="646.4679" cy="279.4979" fill="#F1F1F1" rx="8" ry="8" style="stroke:#181818;stroke-width:0.5;"/><path d="M646.4679,287.4979 L646.4679,314.4979 M633.4679,295.4979 L659.4679,295.4979 M646.4679,314.4979 L633.4679,329.4979 M646.4679,314.4979 L659.4679,329.4979" fill="none" style="stroke:#181818;stroke-width:0.5;"/><text fill="#000000" font-family="sans-serif" font-size="14" lengthAdjust="spacing" textLength="27.3699" x="618.79" y="345.9639">LLM</text><text fill="#000000" font-family="sans-serif" font-size="14" lengthAdjust="spacing" textLength="55.3558" x="618.79" y="365.0318">(Ollama)</text></g><!--link User to UC1--><g class="link" data-entity-1="ent0002" data-entity-2="ent0006" data-link-type="dependency" data-source-line="19" id="lnk12"><path d="M67.28,170.2679 C82.19,164.5479 106.05,155.8279 127.22,150.0679 C181.85,135.2079 239.0286,124.0253 285.5786,115.9353" fill="none" id="User-to-UC1" style="stroke:#181818;stroke-width:1;"/><polygon fill="#181818" points="291.49,114.9079,281.938,112.508,286.5638,115.764,283.3078,120.3899,291.49,114.9079" style="stroke:#181818;stroke-width:1;"/><text fill="#000000" font-family="sans-serif" font-size="13" lengthAdjust="spacing" textLength="82.0041" x="142.72" y="121.3749">query system</text></g><!--link User to UC2--><g class="link" data-entity-1="ent0002" data-entity-2="ent0007" data-link-type="dependency" data-source-line="20" id="lnk13"><path d="M67.39,176.0679 C105.4,176.0679 202.69,176.0679 275.5,176.0679" fill="none" id="User-to-UC2" style="stroke:#181818;stroke-width:1;"/><polygon fill="#181818" points="281.5,176.0679,272.5,172.0679,276.5,176.0679,272.5,180.0679,281.5,176.0679" style="stroke:#181818;stroke-width:1;"/><text fill="#000000" font-family="sans-serif" font-size="13" lengthAdjust="spacing" textLength="58.6951" x="154.72" y="171.9649">configure</text></g><!--link User to UC4--><g class="link" data-entity-1="ent0002" data-entity-2="ent0009" data-link-type="dependency" data-source-line="21" id="lnk14"><path d="M67.25,182.1579 C82.14,188.1579 105.97,197.2479 127.22,203.0679 C183.12,218.3779 242.1157,229.2578 289.0057,236.7778" fill="none" id="User-to-UC4" style="stroke:#181818;stroke-width:1;"/><polygon fill="#181818" points="294.93,237.7279,286.677,232.3532,289.9931,236.9362,285.4101,240.2523,294.93,237.7279" style="stroke:#181818;stroke-width:1;"/><text fill="#000000" font-family="sans-serif" font-size="13" lengthAdjust="spacing" textLength="40.495" x="163.72" y="198.9649">search</text></g><!--link Admin to UC3--><g class="link" data-entity-1="ent0003" data-entity-2="ent0008" data-link-type="dependency" data-source-line="24" id="lnk15"><path d="M97.49,390.0579 C151.6,375.5779 236.8039,352.7689 295.9239,336.9489" fill="none" id="Admin-to-UC3" style="stroke:#181818;stroke-width:1;"/><polygon fill="#181818" points="301.72,335.3979,291.9919,333.8603,296.8899,336.6904,294.0599,341.5884,301.72,335.3979" style="stroke:#181818;stroke-width:1;"/><text fill="#000000" font-family="sans-serif" font-size="13" lengthAdjust="spacing" textLength="75.231" x="146.22" y="349.6249">create index</text></g><!--link Admin to UC6--><g class="link" data-entity-1="ent0003" data-entity-2="ent0011" data-link-type="dependency" data-source-line="25" id="lnk16"><path d="M97.36,416.2079 C107.14,419.0379 117.49,421.8179 127.22,424.0679 C183.68,437.0879 242.8828,446.8018 289.7028,453.6318" fill="none" id="Admin-to-UC6" style="stroke:#181818;stroke-width:1;"/><polygon fill="#181818" points="295.64,454.4979,287.3117,449.2407,290.6924,453.7762,286.1569,457.1569,295.64,454.4979" style="stroke:#181818;stroke-width:1;"/><text fill="#000000" font-family="sans-serif" font-size="13" lengthAdjust="spacing" textLength="111.6961" x="128.22" y="419.9649">manage container</text></g><!--link UC3 to LLM_Actor--><g class="link" data-entity-1="ent0008" data-entity-2="ent0004" data-link-type="dependency" data-source-line="28" id="lnk17"><path d="M448.29,320.0679 C506.75,320.0679 573.86,320.0679 612.55,320.0679" fill="none" id="UC3-to-LLM_Actor" style="stroke:#181818;stroke-width:1;"/><polygon fill="#181818" points="618.55,320.0679,609.55,316.0679,613.55,320.0679,609.55,324.0679,618.55,320.0679" style="stroke:#181818;stroke-width:1;"/><text fill="#000000" font-family="sans-serif" font-size="13" lengthAdjust="spacing" textLength="107.6141" x="480.79" y="315.9649">uses embeddings</text></g><!--link UC4 to LLM_Actor--><g class="link" data-entity-1="ent0009" data-entity-2="ent0004" data-link-type="dependency" data-source-line="29" id="lnk18"><path d="M426.42,255.9179 C472.56,263.1979 535.4,275.2579 588.79,293.0679 C598.71,296.3779 603.7802,298.3617 612.9602,302.8517" fill="none" id="UC4-to-LLM_Actor" style="stroke:#181818;stroke-width:1;"/><polygon fill="#181818" points="618.35,305.4879,612.0227,297.9404,613.8585,303.2911,608.5078,305.1268,618.35,305.4879" style="stroke:#181818;stroke-width:1;"/><text fill="#000000" font-family="sans-serif" font-size="13" lengthAdjust="spacing" textLength="107.6141" x="480.79" y="262.1049">uses embeddings</text></g><!--link UC1 to LLM_Actor--><g class="link" data-entity-1="ent0006" data-entity-2="ent0004" data-link-type="dependency" data-source-line="30" id="lnk19"><path d="M417.71,117.8679 C435.63,123.4279 455.09,130.7679 471.79,140.0679 C531.3,173.2179 542.88,188.7479 588.79,239.0679 C599.31,250.6079 606.108,259.2425 614.888,271.9425" fill="none" id="UC1-to-LLM_Actor" style="stroke:#181818;stroke-width:1;"/><polygon fill="#181818" points="618.3,276.8779,616.4722,267.2001,615.4566,272.7651,609.8917,271.7495,618.3,276.8779" style="stroke:#181818;stroke-width:1;"/><text fill="#000000" font-family="sans-serif" font-size="13" lengthAdjust="spacing" textLength="72.1891" x="498.29" y="141.7549">depends on</text></g><!--link UC5 to LLM_Actor--><g class="link" data-entity-1="ent0010" data-entity-2="ent0004" data-link-type="dependency" data-source-line="31" id="lnk20"><path d="M427.42,384.0679 C473.46,376.7579 535.78,364.7479 588.79,347.0679 C598.71,343.7579 603.7802,341.7741 612.9602,337.2841" fill="none" id="UC5-to-LLM_Actor" style="stroke:#181818;stroke-width:1;"/><polygon fill="#181818" points="618.35,334.6479,608.5078,335.009,613.8585,336.8448,612.0227,342.1955,618.35,334.6479" style="stroke:#181818;stroke-width:1;"/><text fill="#000000" font-family="sans-serif" font-size="13" lengthAdjust="spacing" textLength="27.82" x="520.79" y="342.9649">uses</text></g><!--link UC6 to LLM_Actor--><g class="link" data-entity-1="ent0011" data-entity-2="ent0004" data-link-type="dependency" data-source-line="32" id="lnk21"><path d="M429.25,456.8679 C477.45,449.6879 541.61,434.2579 588.79,401.0679 C600.58,392.7779 607.2825,386.1016 615.6025,374.3016" fill="none" id="UC6-to-LLM_Actor" style="stroke:#181818;stroke-width:1;"/><polygon fill="#181818" points="619.06,369.3979,610.6047,374.4484,616.1788,373.4843,617.1429,379.0584,619.06,369.3979" style="stroke:#181818;stroke-width:1;"/><text fill="#000000" font-family="sans-serif" font-size="13" lengthAdjust="spacing" textLength="56.329" x="506.29" y="396.9649">manages</text></g><?plantuml-src ZP8_JyCm4CLtVufJ5c3eq3zqO40A0LMLMY6es2eXDxwcbX87V8veXVZkdEsaIe21CVT-Vdxl7ATTYK27T0aZs9p8OGKlX919GXAYnBq3LuFLnS61qXPpfsiZXCnTRI5Xr2OWoP-ntJ3QR4sgAcqqEIjv7AWmwR3LQhqrbuzbAIjv5MIUlAPU5C9V94t1sP8GBdecy2a06iASuq7oSCIySGZFwGAU6hId62KRzw6iDdjTD1RF7e6Pz9cxHfSAxgMJE_-zD0gFBJVjSnkKDZ-SmHQPzP456kJ22AcXZsuvsNKVMKiZ2uJOl0Ncuak8Yx16qCQnHLWqYJ0PZMvzBRY1TryJA3JfQnFMygvfNvYnG26szmyFCBmWZY8yzIuMVNpjTp0GvonMCJhVvAJcejwp_Mk6gTdAdpg_A9_b_WHOxL0fRGhFpFx1Z7yn2j_GA0B-3NcnVre8d_Qd4BEJ-0O0?></g></svg>